# xmcd CD database file
#
# Track frame offsets:
#	150
#	17882
#	36955
#	51845
#	70227
#	100202
#	112892
#	136900
#	184100
#	204400
#	229002
#
# Disc length: 3247 seconds
#
# Revision: 1
# Processed by: cddbd v1.5.1PL0 Copyright (c) Steve Scherf et al.
# Submitted via: CDex 1.51
#
DISCID=920cad0b
DTITLE=Slobberbone - Crow Pot Pie
DYEAR=1996
DGENRE=Rock
TTITLE0=Sober Song
TTITLE1=Whiskey Glass Eye
TTITLE2=No Man Among Men
TTITLE3=Shoot You Dead
TTITLE4=I Can Tell Your Love Is Waning
TTITLE5=Ruin Your Day
TTITLE6=Stumblin'
TTITLE7=16 Days
TTITLE8=Little Sister
TTITLE9=Tilt-A-Whirl
TTITLE10=Dunk You In The River
EXTD=YEAR: 1996
EXTT0=
EXTT1=
EXTT2=
EXTT3=
EXTT4=
EXTT5=
EXTT6=
EXTT7=
EXTT8=
EXTT9=
EXTT10=
PLAYORDER=
